<svg xmlns="http://www.w3.org/2000/svg" width="412" height="390" viewBox="0 0 412 390">
  <g transform="translate(-230 -559)">
    <path id="crank" d="M195,0c29.939,0-3.521,81.155,22.018,93.987C282.666,126.972,390,123.858,390,206c0,73.041-111.173,68.861-165.528,105.5C194.308,331.837,233.555,412,195,412,87.3,412,0,319.771,0,206S87.3,0,195,0Z" transform="translate(230 949) rotate(-90)" fill="#e2e2e2"/>
    <path id="crank_-_Outline" data-name="crank - Outline" d="M195,3a182.47,182.47,0,0,0-74.679,15.928,188.979,188.979,0,0,0-32.6,18.7A196.163,196.163,0,0,0,59.293,62.4,202.465,202.465,0,0,0,35.83,92.44a206.921,206.921,0,0,0-17.721,34.491,210.51,210.51,0,0,0-11.2,38.124,216.513,216.513,0,0,0,0,81.891,210.51,210.51,0,0,0,11.2,38.124A206.925,206.925,0,0,0,35.83,319.56,202.463,202.463,0,0,0,59.293,349.6a196.166,196.166,0,0,0,28.424,24.775,188.98,188.98,0,0,0,32.6,18.7A182.47,182.47,0,0,0,195,409c4.471,0,7.776-1.2,10.106-3.662,2.793-2.954,4.426-7.967,4.994-15.325.544-7.052.081-15.289-.409-24.01-.615-10.947-1.251-22.267.1-32.228,1.6-11.843,5.859-19.942,13.006-24.76,19.043-12.837,45.008-20.787,70.118-28.476,11.818-3.619,24.039-7.36,35.238-11.533,5.995-2.234,11.238-4.413,16.03-6.662a124.172,124.172,0,0,0,14.21-7.733,79.521,79.521,0,0,0,11.839-9.125,56.171,56.171,0,0,0,8.988-10.838,49.362,49.362,0,0,0,5.739-12.97A58.237,58.237,0,0,0,387,206a75.6,75.6,0,0,0-2.315-19.109,60.126,60.126,0,0,0-6.5-15.6,63.466,63.466,0,0,0-10.147-12.776A85.18,85.18,0,0,0,354.7,148a129.621,129.621,0,0,0-16-8.707c-5.4-2.5-11.3-4.9-18.063-7.325-12.626-4.536-26.44-8.513-39.8-12.359-22.466-6.468-45.7-13.156-65.17-22.94-14.144-7.107-12.618-30.237-11.142-52.606.577-8.744,1.122-17,.743-24.031-.394-7.308-1.752-12.106-4.15-14.669A7.81,7.81,0,0,0,195,3m0-3c29.939,0-3.521,81.155,22.018,93.987C282.666,126.972,390,123.858,390,206c0,73.041-111.173,68.861-165.528,105.5C194.308,331.837,233.555,412,195,412,87.3,412,0,319.771,0,206S87.3,0,195,0Z" transform="translate(230 949) rotate(-90)" fill="#707070"/>
  </g>
</svg>
