<svg xmlns="http://www.w3.org/2000/svg" width="137.922" height="138.003" viewBox="0 0 137.922 138.003">
  <path id="Union_1" data-name="Union 1" d="M0,75.978a62,62,0,0,1,62-62q2.84,0,5.62.251c2.49-.306,4.819-.681,6.283-.947,2.7-.49,5.773-3.641,9.1-6.031C85.1,5.736,91.067,1.541,95.27.717A41.736,41.736,0,0,1,105.31.079c8.287.638,15.3,7.969,19.761,12.112s12.271,13.24,12.749,19.921-.048,6.63-.67,9.738-3.108,8.079-3.937,9.944-8.194,11.276-9.912,14.85A62,62,0,1,1,0,75.978Z" transform="translate(0.001 0.024)" fill="#e2e2e2" stroke="#707070" stroke-width="0.001"/>
</svg>
